# Aspose.3D Wavefront OBJ Exporter
# Copyright 2004-2023 Aspose Pty Ltd.
# File created: 07/29/2023 02:11:58

mtllib material.lib

#
# object Rock_Type2_04_mesh
#

v -0.2867205 0.126506784318391 0.35875330552978936
v 0.07743459 0.3853680912526364 0.20011631684497916
v 0.03890329 0.38895480169888904 -0.03886602299824115
v -0.4591661 0.02819935979620748 0.23343550123263392
v -0.3311911 0.14815800269485896 -0.0616511635238064
v -0.3687115 -0.08346049650209619 -0.0800226936481753
v -0.4430007 -0.1506574040466458 0.09257643341455412
v -0.4610654 0.01417020989065033 0.23127490061940016
v 0.2167254 0.29294878858284024 0.26119411280520216
v 0.2048684 0.08819756289898567 0.39122550385523968
v 0.14659140000000002 0.31236180190601072 -0.04360441634622841
v 0.2196299 0.1222825025145232 -0.05752556465486073
v 0.3485707 0.02409188791311985 0.04774224105309024
v 0.34905799999999996 0.10495609595336206 0.09257626458777806
v 0.3151679 0.20812279531310632 0.10722360909733896
v -0.1019378 -0.0528498408011887 0.4758755976898604
v 0.1470708 -0.01524395993517407 0.45606349933366608
v 0.00202763 -0.31857269588584324 -0.09412092392525872
v 0.28796899999999996 -0.18626620253165892 0.05791758185804362
v 0.14465249999999998 -0.3102673128450058 0.29385938643778192
v -0.2458816 -0.27750129590438828 -0.09369666212997032
v -0.0294255 -0.33590409581182368 -0.09581429468283848
v -0.3176865 -0.227091513812798 0.3159998900735126
v -0.3834565 -0.26901600470241992 0.10757878824093402
v -0.2072677 -0.23634901713006492 0.39189008966885432
v 0.07506245 -0.34759681244091136 0.28461478480605724
v -0.04770791 -0.37616380290827768 0.06653360355735367
v -0.3370354 -0.29574420266259604 0.06091306707260698
# 28 vertices

vn -0.9272075 0.17640751444241254 -0.33040379228898096
vn -0.2627606 -0.92652031177103792 0.26928985950050012
vn 0.7342939 0.32577152603252944 -0.59555468576007112
vn -0.54694 0.83109839560011024 0.10065773632847474
vn 0.8724411 0.22499958103600552 0.4338455098350472
vn 0.5285934 -0.19227546385885476 -0.8268128084046304
vn 0.57535879999999992 0.81392510352094496 -0.08054979442219412
vn -0.01391309 0.536619763120276 0.84370952345640176
vn 0.8806535 -0.23377361801204268 0.41206738978142824
vn 0.01109707 0.07727883357798415 -0.9969477966220352
vn -0.8546462 -0.38593341518210968 0.34732608313031044
vn -0.2539309 -0.93171998865043456 -0.25964774072678552
vn 0.4830143 -0.86103149304427824 -0.15912833763689216
vn 0.14115 -0.47784973789898096 0.86702737911251984
vn -0.7499356 -0.439901978404496 -0.49404741922873184
vn -0.5685336 -0.04949829589447285 0.82116959783636096
# 16 vertex normals

vt 0.2384259 0.2043604 0
vt 0.2126322 0.2231006 0
vt 0.2224845 0.2534229 0
vt 0.2543673 0.2534229 0
vt 0.2642196 0.2231006 0
vt 0.2384259 0.2043604 0
vt 0.2149384 0.2179209 0
vt 0.2149384 0.245042 0
vt 0.2384259 0.2586026 0
vt 0.26191350000000004 0.245042 0
vt 0.26191350000000004 0.2179209 0
vt 0.2384259 0.2043604 0
vt 0.2126322 0.2231006 0
vt 0.2224845 0.2534229 0
vt 0.2543673 0.2534229 0
vt 0.2642196 0.2231006 0
vt 0.2384259 0.2043604 0
vt 0.2126322 0.2231006 0
vt 0.2224845 0.2534229 0
vt 0.2543673 0.2534229 0
vt 0.2642196 0.2231006 0
vt 0.26554699999999996 0.2586026 0
vt 0.2113049 0.2586026 0
vt 0.2113049 0.2043604 0
vt 0.26554699999999996 0.2043604 0
vt 0.26554699999999996 0.2586026 0
vt 0.2113049 0.2586026 0
vt 0.2113049 0.2043604 0
vt 0.26554699999999996 0.2043604 0
vt 0.2384259 0.2043604 0
vt 0.2126322 0.2231006 0
vt 0.2224845 0.2534229 0
vt 0.2543673 0.2534229 0
vt 0.2642196 0.2231006 0
vt 0.2384259 0.2043604 0
vt 0.2149384 0.2179209 0
vt 0.2149384 0.245042 0
vt 0.2384259 0.2586026 0
vt 0.26191350000000004 0.245042 0
vt 0.26191350000000004 0.2179209 0
vt 0.2384259 0.2043604 0
vt 0.2149384 0.2179209 0
vt 0.2149384 0.245042 0
vt 0.2384259 0.2586026 0
vt 0.26191350000000004 0.245042 0
vt 0.26191350000000004 0.2179209 0
vt 0.2384259 0.2043604 0
vt 0.2192484 0.2123039 0
vt 0.2113049 0.2314814 0
vt 0.2192484 0.25065900000000004 0
vt 0.2384259 0.2586026 0
vt 0.2576034 0.25065900000000004 0
vt 0.26554699999999996 0.2314814 0
vt 0.2576034 0.2123039 0
vt 0.26554699999999996 0.2586026 0
vt 0.2113049 0.2586026 0
vt 0.2113049 0.2043604 0
vt 0.26554699999999996 0.2043604 0
vt 0.26554699999999996 0.2586026 0
vt 0.2113049 0.2586026 0
vt 0.2113049 0.2043604 0
vt 0.26554699999999996 0.2043604 0
vt 0.2384259 0.2043604 0
vt 0.2149384 0.2179209 0
vt 0.2149384 0.245042 0
vt 0.2384259 0.2586026 0
vt 0.26191350000000004 0.245042 0
vt 0.26191350000000004 0.2179209 0
vt 0.2384259 0.2043604 0
vt 0.2126322 0.2231006 0
vt 0.2224845 0.2534229 0
vt 0.2543673 0.2534229 0
vt 0.2642196 0.2231006 0
vt 0.2384259 0.2043604 0
vt 0.2126322 0.2231006 0
vt 0.2224845 0.2534229 0
vt 0.2543673 0.2534229 0
vt 0.2642196 0.2231006 0
vt 0.2384259 0.2043604 0
vt 0.2149384 0.2179209 0
vt 0.2149384 0.245042 0
vt 0.2384259 0.2586026 0
vt 0.26191350000000004 0.245042 0
vt 0.26191350000000004 0.2179209 0
# 84 texture coords

g Rock_Type2_04_mesh
usemtl color3
s 1
f 5/1/1 6/2/1 7/3/1 8/4/1 4/5/1
f 28/6/2 27/7/2 26/8/2 25/9/2 23/10/2 24/11/2
f 14/12/3 13/13/3 12/14/3 11/15/3 15/16/3
f 3/17/4 5/18/4 4/19/4 1/20/4 2/21/4
f 14/22/5 15/23/5 9/24/5 10/25/5
f 19/26/6 18/27/6 12/28/6 13/29/6
f 3/30/7 2/31/7 9/32/7 15/33/7 11/34/7
f 1/35/8 16/36/8 17/37/8 10/38/8 9/39/8 2/40/8
f 17/41/9 20/42/9 19/43/9 13/44/9 14/45/9 10/46/9
f 5/47/10 3/48/10 11/49/10 12/50/10 18/51/10 22/52/10 21/53/10 6/54/10
f 24/55/11 23/56/11 8/57/11 7/58/11
f 27/59/12 28/60/12 21/61/12 22/62/12
f 20/63/13 26/64/13 27/65/13 22/66/13 18/67/13 19/68/13
f 20/69/14 17/70/14 16/71/14 25/72/14 26/73/14
f 21/74/15 28/75/15 24/76/15 7/77/15 6/78/15
f 1/79/16 4/80/16 8/81/16 23/82/16 25/83/16 16/84/16
#16 polygons

